<svg width="2000" height="2000"  viewBox="0 0 1000 1000" xmlns="http://www.w3.org/2000/svg">
<path d="m 800, 500, 5.0 3.061616997868383E-16, 5.0 3.061616997868383E-16, 0.0 -5.0, 0.0 -5.0, -5.0 0.0, 0.0 5.0, -5.0 0.0, 0.0 -5.0, 0.0 -5.0, -5.0 0.0, 0.0 5.0, -5.0 0.0, 0.0 -5.0, 0.0 -5.0, 5.0 3.061616997868383E-16, 5.0 3.061616997868383E-16, 0.0 -5.0, 5.0 3.061616997868383E-16, 0.0 5.0, 0.0 5.0, 5.0 0.0, 5.0 0.0, 0.0 -5.0, -5.0 0.0, 0.0 -5.0, 5.0 3.061616997868383E-16, 5.0 3.061616997868383E-16, 0.0 -5.0, -5.0 0.0, 0.0 -5.0, 5.0 3.061616997868383E-16, 5.0 3.061616997868383E-16, 0.0 5.0, 0.0 5.0, 5.0 0.0, 5.0 0.0, 0.0 5.0, 0.0 5.0, 5.0 0.0, 5.0 0.0, 0.0 -5.0, -5.0 0.0, 0.0 -5.0, 5.0 3.061616997868383E-16, 5.0 3.061616997868383E-16, 0.0 -5.0, -5.0 0.0, 0.0 -5.0, 5.0 3.061616997868383E-16, 5.0 3.061616997868383E-16, 0.0 5.0, 0.0 5.0, 5.0 0.0, 0.0 -5.0, 5.0 3.061616997868383E-16, 5.0 3.061616997868383E-16, 0.0 -5.0, 0.0 -5.0, -5.0 0.0, 0.0 5.0, -5.0 0.0, 0.0 -5.0, 0.0 -5.0, -5.0 0.0, 0.0 5.0, -5.0 0.0, 0.0 -5.0, 0.0 -5.0, 5.0 3.061616997868383E-16, 5.0 3.061616997868383E-16, 0.0 -5.0, 0.0 -5.0, 5.0 3.061616997868383E-16, 5.0 3.061616997868383E-16, 0.0 -5.0, 0.0 -5.0, -5.0 0.0, 0.0 5.0, -5.0 0.0, 0.0 -5.0, 0.0 -5.0, -5.0 0.0, 0.0 5.0, -5.0 0.0, 0.0 -5.0, 0.0 -5.0, 5.0 3.061616997868383E-16, 5.0 3.061616997868383E-16, 0.0 -5.0, -5.0 0.0, 0.0 -5.0, 0.0 -5.0, -5.0 0.0, -5.0 0.0, 0.0 5.0, 5.0 0.0, 0.0 5.0, -5.0 0.0, -5.0 0.0, 0.0 5.0, 5.0 0.0, 0.0 5.0, -5.0 0.0, -5.0 0.0, 0.0 -5.0, 0.0 -5.0, -5.0 0.0, 0.0 5.0, -5.0 0.0, -5.0 0.0, 0.0 5.0, 0.0 5.0, 5.0 0.0, 0.0 -5.0, 5.0 3.061616997868383E-16, 0.0 5.0, 0.0 5.0, 5.0 0.0, 0.0 -5.0, 5.0 3.061616997868383E-16, 0.0 5.0, 0.0 5.0, -5.0 0.0, -5.0 0.0, 0.0 5.0, -5.0 0.0, 0.0 -5.0, 0.0 -5.0, -5.0 0.0, -5.0 0.0, 0.0 5.0, 5.0 0.0, 0.0 5.0, -5.0 0.0, -5.0 0.0, 0.0 5.0, 5.0 0.0, 0.0 5.0, -5.0 0.0, -5.0 0.0, 0.0 -5.0, 0.0 -5.0, -5.0 0.0, 0.0 -5.0, 5.0 3.061616997868383E-16, 5.0 3.061616997868383E-16, 0.0 -5.0, 0.0 -5.0, -5.0 0.0, 0.0 5.0, -5.0 0.0, 0.0 -5.0, 0.0 -5.0, -5.0 0.0, 0.0 5.0, -5.0 0.0, 0.0 -5.0, 0.0 -5.0, 5.0 3.061616997868383E-16, 5.0 3.061616997868383E-16, 0.0 -5.0, 0.0 -5.0, 5.0 3.061616997868383E-16, 5.0 3.061616997868383E-16, 0.0 -5.0, 0.0 -5.0, -5.0 0.0, 0.0 5.0, -5.0 0.0, 0.0 -5.0, 0.0 -5.0, -5.0 0.0, 0.0 5.0, -5.0 0.0, 0.0 -5.0, 0.0 -5.0, 5.0 3.061616997868383E-16, 5.0 3.061616997868383E-16, 0.0 -5.0, -5.0 0.0, 0.0 -5.0, 0.0 -5.0, -5.0 0.0, -5.0 0.0, 0.0 5.0, 5.0 0.0, 0.0 5.0, -5.0 0.0, -5.0 0.0, 0.0 5.0, 5.0 0.0, 0.0 5.0, -5.0 0.0, -5.0 0.0, 0.0 -5.0, 0.0 -5.0, -5.0 0.0, 0.0 5.0, -5.0 0.0, -5.0 0.0, 0.0 5.0, 0.0 5.0, 5.0 0.0, 0.0 -5.0, 5.0 3.061616997868383E-16, 0.0 5.0, 0.0 5.0, 5.0 0.0, 0.0 -5.0, 5.0 3.061616997868383E-16, 0.0 5.0, 0.0 5.0, -5.0 0.0, -5.0 0.0, 0.0 5.0, -5.0 0.0, 0.0 -5.0, 0.0 -5.0, -5.0 0.0, -5.0 0.0, 0.0 5.0, 5.0 0.0, 0.0 5.0, -5.0 0.0, -5.0 0.0, 0.0 5.0, 5.0 0.0, 0.0 5.0, -5.0 0.0, -5.0 0.0, 0.0 -5.0, 0.0 -5.0, -5.0 0.0, 0.0 -5.0, 5.0 3.061616997868383E-16, 5.0 3.061616997868383E-16, 0.0 -5.0, 0.0 -5.0, -5.0 0.0, 0.0 5.0, -5.0 0.0, 0.0 -5.0, 0.0 -5.0, -5.0 0.0, 0.0 5.0, -5.0 0.0, 0.0 -5.0, 0.0 -5.0, 5.0 3.061616997868383E-16, 5.0 3.061616997868383E-16, 0.0 -5.0, 0.0 -5.0, 5.0 3.061616997868383E-16, 5.0 3.061616997868383E-16, 0.0 -5.0, 0.0 -5.0, -5.0 0.0, 0.0 5.0, -5.0 0.0, 0.0 -5.0, 0.0 -5.0, -5.0 0.0, 0.0 5.0, -5.0 0.0, 0.0 -5.0, 0.0 -5.0, 5.0 3.061616997868383E-16, 5.0 3.061616997868383E-16, 0.0 -5.0, 5.0 3.061616997868383E-16, 0.0 5.0, 0.0 5.0, 5.0 0.0, 5.0 0.0, 0.0 -5.0, -5.0 0.0, 0.0 -5.0, 5.0 3.061616997868383E-16, 5.0 3.061616997868383E-16, 0.0 -5.0, -5.0 0.0, 0.0 -5.0, 5.0 3.061616997868383E-16, 5.0 3.061616997868383E-16, 0.0 5.0, 0.0 5.0, 5.0 0.0, 5.0 0.0, 0.0 5.0, 0.0 5.0, 5.0 0.0, 5.0 0.0, 0.0 -5.0, -5.0 0.0, 0.0 -5.0, 5.0 3.061616997868383E-16, 5.0 3.061616997868383E-16, 0.0 -5.0, -5.0 0.0, 0.0 -5.0, 5.0 3.061616997868383E-16, 5.0 3.061616997868383E-16, 0.0 5.0, 0.0 5.0, 5.0 0.0, 0.0 -5.0, 5.0 3.061616997868383E-16, 5.0 3.061616997868383E-16, 0.0 -5.0, 0.0 -5.0, -5.0 0.0, 0.0 5.0, -5.0 0.0, 0.0 -5.0, 0.0 -5.0, -5.0 0.0, 0.0 5.0, -5.0 0.0, 0.0 -5.0, 0.0 -5.0, 5.0 3.061616997868383E-16, 5.0 3.061616997868383E-16, 0.0 -5.0, -5.0 0.0, 0.0 -5.0, 0.0 -5.0, -5.0 0.0, -5.0 0.0, 0.0 5.0, 5.0 0.0, 0.0 5.0, -5.0 0.0, -5.0 0.0, 0.0 5.0, 5.0 0.0, 0.0 5.0, -5.0 0.0, -5.0 0.0, 0.0 -5.0, 0.0 -5.0, -5.0 0.0, 0.0 -5.0, 5.0 3.061616997868383E-16, 5.0 3.061616997868383E-16, 0.0 -5.0, 0.0 -5.0, -5.0 0.0, 0.0 5.0, -5.0 0.0, 0.0 -5.0, 0.0 -5.0, -5.0 0.0, 0.0 5.0, -5.0 0.0, 0.0 -5.0, 0.0 -5.0, 5.0 3.061616997868383E-16, 5.0 3.061616997868383E-16, 0.0 -5.0, 0.0 -5.0, 5.0 3.061616997868383E-16, 5.0 3.061616997868383E-16, 0.0 -5.0, 0.0 -5.0, -5.0 0.0, 0.0 5.0, -5.0 0.0, 0.0 -5.0, 0.0 -5.0, -5.0 0.0, 0.0 5.0, -5.0 0.0, 0.0 -5.0, 0.0 -5.0, 5.0 3.061616997868383E-16, 5.0 3.061616997868383E-16, 0.0 -5.0, -5.0 0.0, 0.0 -5.0, 0.0 -5.0, -5.0 0.0, -5.0 0.0, 0.0 5.0, 5.0 0.0, 0.0 5.0, -5.0 0.0, -5.0 0.0, 0.0 5.0, 5.0 0.0, 0.0 5.0, -5.0 0.0, -5.0 0.0, 0.0 -5.0, 0.0 -5.0, -5.0 0.0, -5.0 0.0, 0.0 -5.0, 0.0 -5.0, -5.0 0.0, -5.0 0.0, 0.0 5.0, 5.0 0.0, 0.0 5.0, -5.0 0.0, -5.0 0.0, 0.0 5.0, 5.0 0.0, 0.0 5.0, -5.0 0.0, -5.0 0.0, 0.0 -5.0, 0.0 -5.0, -5.0 0.0, 0.0 5.0, -5.0 0.0, -5.0 0.0, 0.0 5.0, 0.0 5.0, 5.0 0.0, 0.0 -5.0, 5.0 3.061616997868383E-16, 0.0 5.0, 0.0 5.0, 5.0 0.0, 0.0 -5.0, 5.0 3.061616997868383E-16, 0.0 5.0, 0.0 5.0, -5.0 0.0, -5.0 0.0, 0.0 5.0, 5.0 0.0, 0.0 5.0, 0.0 5.0, 5.0 0.0, 5.0 0.0, 0.0 -5.0, -5.0 0.0, 0.0 -5.0, 5.0 3.061616997868383E-16, 5.0 3.061616997868383E-16, 0.0 -5.0, -5.0 0.0, 0.0 -5.0, 5.0 3.061616997868383E-16, 5.0 3.061616997868383E-16, 0.0 5.0, 0.0 5.0, 5.0 0.0, 0.0 5.0, -5.0 0.0, -5.0 0.0, 0.0 5.0, 0.0 5.0, 5.0 0.0, 0.0 -5.0, 5.0 3.061616997868383E-16, 0.0 5.0, 0.0 5.0, 5.0 0.0, 0.0 -5.0, 5.0 3.061616997868383E-16, 0.0 5.0, 0.0 5.0, -5.0 0.0, -5.0 0.0, 0.0 5.0, -5.0 0.0, 0.0 -5.0, 0.0 -5.0, -5.0 0.0, -5.0 0.0, 0.0 5.0, 5.0 0.0, 0.0 5.0, -5.0 0.0, -5.0 0.0, 0.0 5.0, 5.0 0.0, 0.0 5.0, -5.0 0.0, -5.0 0.0, 0.0 -5.0, 0.0 -5.0, -5.0 0.0, -5.0 0.0, 0.0 -5.0, 0.0 -5.0, -5.0 0.0, -5.0 0.0, 0.0 5.0, 5.0 0.0, 0.0 5.0, -5.0 0.0, -5.0 0.0, 0.0 5.0, 5.0 0.0, 0.0 5.0, -5.0 0.0, -5.0 0.0, 0.0 -5.0, 0.0 -5.0, -5.0 0.0, 0.0 5.0, -5.0 0.0, -5.0 0.0, 0.0 5.0, 0.0 5.0, 5.0 0.0, 0.0 -5.0, 5.0 3.061616997868383E-16, 0.0 5.0, 0.0 5.0, 5.0 0.0, 0.0 -5.0, 5.0 3.061616997868383E-16, 0.0 5.0, 0.0 5.0, -5.0 0.0, -5.0 0.0, 0.0 5.0, 5.0 0.0, 0.0 5.0, 0.0 5.0, 5.0 0.0, 5.0 0.0, 0.0 -5.0, -5.0 0.0, 0.0 -5.0, 5.0 3.061616997868383E-16, 5.0 3.061616997868383E-16, 0.0 -5.0, -5.0 0.0, 0.0 -5.0, 5.0 3.061616997868383E-16, 5.0 3.061616997868383E-16, 0.0 5.0, 0.0 5.0, 5.0 0.0, 0.0 5.0, -5.0 0.0, -5.0 0.0, 0.0 5.0, 0.0 5.0, 5.0 0.0, 0.0 -5.0, 5.0 3.061616997868383E-16, 0.0 5.0, 0.0 5.0, 5.0 0.0, 0.0 -5.0, 5.0 3.061616997868383E-16, 0.0 5.0, 0.0 5.0, -5.0 0.0, -5.0 0.0, 0.0 5.0, -5.0 0.0, 0.0 -5.0, 0.0 -5.0, -5.0 0.0, -5.0 0.0, 0.0 5.0, 5.0 0.0, 0.0 5.0, -5.0 0.0, -5.0 0.0, 0.0 5.0, 5.0 0.0, 0.0 5.0, -5.0 0.0, -5.0 0.0, 0.0 -5.0, 0.0 -5.0, -5.0 0.0, -5.0 0.0, 0.0 -5.0, 0.0 -5.0, -5.0 0.0, -5.0 0.0, 0.0 5.0, 5.0 0.0, 0.0 5.0, -5.0 0.0, -5.0 0.0, 0.0 5.0, 5.0 0.0, 0.0 5.0, -5.0 0.0, -5.0 0.0, 0.0 -5.0, 0.0 -5.0, -5.0 0.0, 0.0 -5.0, 5.0 3.061616997868383E-16, 5.0 3.061616997868383E-16, 0.0 -5.0, 0.0 -5.0, -5.0 0.0, 0.0 5.0, -5.0 0.0, 0.0 -5.0, 0.0 -5.0, -5.0 0.0, 0.0 5.0, -5.0 0.0, 0.0 -5.0, 0.0 -5.0, 5.0 3.061616997868383E-16, 5.0 3.061616997868383E-16, 0.0 -5.0, 0.0 -5.0, 5.0 3.061616997868383E-16, 5.0 3.061616997868383E-16, 0.0 -5.0, 0.0 -5.0, -5.0 0.0, 0.0 5.0, -5.0 0.0, 0.0 -5.0, 0.0 -5.0, -5.0 0.0, 0.0 5.0, -5.0 0.0, 0.0 -5.0, 0.0 -5.0, 5.0 3.061616997868383E-16, 5.0 3.061616997868383E-16, 0.0 -5.0, -5.0 0.0, 0.0 -5.0, 0.0 -5.0, -5.0 0.0, -5.0 0.0, 0.0 5.0, 5.0 0.0, 0.0 5.0, -5.0 0.0, -5.0 0.0, 0.0 5.0, 5.0 0.0, 0.0 5.0, -5.0 0.0, -5.0 0.0, 0.0 -5.0, 0.0 -5.0, -5.0 0.0, 0.0 5.0, -5.0 0.0, -5.0 0.0, 0.0 5.0, 0.0 5.0, 5.0 0.0, 0.0 -5.0, 5.0 3.061616997868383E-16, 0.0 5.0, 0.0 5.0, 5.0 0.0, 0.0 -5.0, 5.0 3.061616997868383E-16, 0.0 5.0, 0.0 5.0, -5.0 0.0, -5.0 0.0, 0.0 5.0, -5.0 0.0, 0.0 -5.0, 0.0 -5.0, -5.0 0.0, -5.0 0.0, 0.0 5.0, 5.0 0.0, 0.0 5.0, -5.0 0.0, -5.0 0.0, 0.0 5.0, 5.0 0.0, 0.0 5.0, -5.0 0.0, -5.0 0.0, 0.0 -5.0, 0.0 -5.0, -5.0 0.0, -5.0 0.0, 0.0 -5.0, 0.0 -5.0, -5.0 0.0, -5.0 0.0, 0.0 5.0, 5.0 0.0, 0.0 5.0, -5.0 0.0, -5.0 0.0, 0.0 5.0, 5.0 0.0, 0.0 5.0, -5.0 0.0, -5.0 0.0, 0.0 -5.0, 0.0 -5.0, -5.0 0.0, 0.0 5.0, -5.0 0.0, -5.0 0.0, 0.0 5.0, 0.0 5.0, 5.0 0.0, 0.0 -5.0, 5.0 3.061616997868383E-16, 0.0 5.0, 0.0 5.0, 5.0 0.0, 0.0 -5.0, 5.0 3.061616997868383E-16, 0.0 5.0, 0.0 5.0, -5.0 0.0, -5.0 0.0, 0.0 5.0, 0.0 5.0, -5.0 0.0, -5.0 0.0, 0.0 5.0, 0.0 5.0, 5.0 0.0, 0.0 -5.0, 5.0 3.061616997868383E-16, 0.0 5.0, 0.0 5.0, 5.0 0.0, 0.0 -5.0, 5.0 3.061616997868383E-16, 0.0 5.0, 0.0 5.0, -5.0 0.0, -5.0 0.0, 0.0 5.0, 5.0 0.0, 0.0 5.0, 0.0 5.0, 5.0 0.0, 5.0 0.0, 0.0 -5.0, -5.0 0.0, 0.0 -5.0, 5.0 3.061616997868383E-16, 5.0 3.061616997868383E-16, 0.0 -5.0, -5.0 0.0, 0.0 -5.0, 5.0 3.061616997868383E-16, 5.0 3.061616997868383E-16, 0.0 5.0, 0.0 5.0, 5.0 0.0, 0.0 -5.0, 5.0 3.061616997868383E-16, 5.0 3.061616997868383E-16, 0.0 -5.0, 0.0 -5.0, -5.0 0.0, 0.0 5.0, -5.0 0.0, 0.0 -5.0, 0.0 -5.0, -5.0 0.0, 0.0 5.0, -5.0 0.0, 0.0 -5.0, 0.0 -5.0, 5.0 3.061616997868383E-16, 5.0 3.061616997868383E-16, 0.0 -5.0, 5.0 3.061616997868383E-16, 0.0 5.0, 0.0 5.0, 5.0 0.0, 5.0 0.0, 0.0 -5.0, -5.0 0.0, 0.0 -5.0, 5.0 3.061616997868383E-16, 5.0 3.061616997868383E-16, 0.0 -5.0, -5.0 0.0, 0.0 -5.0, 5.0 3.061616997868383E-16, 5.0 3.061616997868383E-16, 0.0 5.0, 0.0 5.0, 5.0 0.0, 0.0 5.0, -5.0 0.0, -5.0 0.0, 0.0 5.0, 0.0 5.0, 5.0 0.0, 0.0 -5.0, 5.0 3.061616997868383E-16, 0.0 5.0, 0.0 5.0, 5.0 0.0, 0.0 -5.0, 5.0 3.061616997868383E-16, 0.0 5.0, 0.0 5.0, -5.0 0.0, -5.0 0.0, 0.0 5.0, 0.0 5.0, -5.0 0.0, -5.0 0.0, 0.0 5.0, 0.0 5.0, 5.0 0.0, 0.0 -5.0, 5.0 3.061616997868383E-16, 0.0 5.0, 0.0 5.0, 5.0 0.0, 0.0 -5.0, 5.0 3.061616997868383E-16, 0.0 5.0, 0.0 5.0, -5.0 0.0, -5.0 0.0, 0.0 5.0, 5.0 0.0, 0.0 5.0, 0.0 5.0, 5.0 0.0, 5.0 0.0, 0.0 -5.0, -5.0 0.0, 0.0 -5.0, 5.0 3.061616997868383E-16, 5.0 3.061616997868383E-16, 0.0 -5.0, -5.0 0.0, 0.0 -5.0, 5.0 3.061616997868383E-16, 5.0 3.061616997868383E-16, 0.0 5.0, 0.0 5.0, 5.0 0.0, 0.0 -5.0, 5.0 3.061616997868383E-16, 5.0 3.061616997868383E-16, 0.0 -5.0, 0.0 -5.0, -5.0 0.0, 0.0 5.0, -5.0 0.0, 0.0 -5.0, 0.0 -5.0, -5.0 0.0, 0.0 5.0, -5.0 0.0, 0.0 -5.0, 0.0 -5.0, 5.0 3.061616997868383E-16, 5.0 3.061616997868383E-16, 0.0 -5.0, 5.0 3.061616997868383E-16, 0.0 5.0, 0.0 5.0, 5.0 0.0, 5.0 0.0, 0.0 -5.0, -5.0 0.0, 0.0 -5.0, 5.0 3.061616997868383E-16, 5.0 3.061616997868383E-16, 0.0 -5.0, -5.0 0.0, 0.0 -5.0, 5.0 3.061616997868383E-16, 5.0 3.061616997868383E-16, 0.0 5.0, 0.0 5.0, 5.0 0.0, 0.0 5.0, -5.0 0.0, -5.0 0.0, 0.0 5.0, 0.0 5.0, 5.0 0.0, 0.0 -5.0, 5.0 3.061616997868383E-16, 0.0 5.0, 0.0 5.0, 5.0 0.0, 0.0 -5.0, 5.0 3.061616997868383E-16, 0.0 5.0, 0.0 5.0, -5.0 0.0, -5.0 0.0, 0.0 5.0, 0.0 5.0, -5.0 0.0, -5.0 0.0, 0.0 5.0, 0.0 5.0, 5.0 0.0, 0.0 -5.0, 5.0 3.061616997868383E-16, 0.0 5.0, 0.0 5.0, 5.0 0.0, 0.0 -5.0, 5.0 3.061616997868383E-16, 0.0 5.0, 0.0 5.0, -5.0 0.0, -5.0 0.0, 0.0 5.0, -5.0 0.0, 0.0 -5.0, 0.0 -5.0, -5.0 0.0, -5.0 0.0, 0.0 5.0, 5.0 0.0, 0.0 5.0, -5.0 0.0, -5.0 0.0, 0.0 5.0, 5.0 0.0, 0.0 5.0, -5.0 0.0, -5.0 0.0, 0.0 -5.0, 0.0 -5.0, -5.0 0.0, -5.0 0.0, 0.0 -5.0, 0.0 -5.0, -5.0 0.0, -5.0 0.0, 0.0 5.0, 5.0 0.0, 0.0 5.0, -5.0 0.0, -5.0 0.0, 0.0 5.0, 5.0 0.0, 0.0 5.0, -5.0 0.0, -5.0 0.0, 0.0 -5.0, 0.0 -5.0, -5.0 0.0, 0.0 5.0, -5.0 0.0, -5.0 0.0, 0.0 5.0, 0.0 5.0, 5.0 0.0, 0.0 -5.0, 5.0 3.061616997868383E-16, 0.0 5.0, 0.0 5.0, 5.0 0.0, 0.0 -5.0, 5.0 3.061616997868383E-16, 0.0 5.0, 0.0 5.0, -5.0 0.0, -5.0 0.0, 0.0 5.0, 5.0 0.0, 0.0 5.0, 0.0 5.0, 5.0 0.0, 5.0 0.0, 0.0 -5.0, -5.0 0.0, 0.0 -5.0, 5.0 3.061616997868383E-16, 5.0 3.061616997868383E-16, 0.0 -5.0, -5.0 0.0, 0.0 -5.0, 5.0 3.061616997868383E-16, 5.0 3.061616997868383E-16, 0.0 5.0, 0.0 5.0, 5.0 0.0, 0.0 5.0, -5.0 0.0, -5.0 0.0, 0.0 5.0, 0.0 5.0, 5.0 0.0, 0.0 -5.0, 5.0 3.061616997868383E-16, 0.0 5.0, 0.0 5.0, 5.0 0.0, 0.0 -5.0, 5.0 3.061616997868383E-16, 0.0 5.0, 0.0 5.0, -5.0 0.0, -5.0 0.0, 0.0 5.0, 0.0 5.0, -5.0 0.0, -5.0 0.0, 0.0 5.0, 0.0 5.0, 5.0 0.0, 0.0 -5.0, 5.0 3.061616997868383E-16, 0.0 5.0, 0.0 5.0, 5.0 0.0, 0.0 -5.0, 5.0 3.061616997868383E-16, 0.0 5.0, 0.0 5.0, -5.0 0.0, -5.0 0.0, 0.0 5.0, 5.0 0.0, 0.0 5.0, 0.0 5.0, 5.0 0.0, 5.0 0.0, 0.0 -5.0, -5.0 0.0, 0.0 -5.0, 5.0 3.061616997868383E-16, 5.0 3.061616997868383E-16, 0.0 -5.0, -5.0 0.0, 0.0 -5.0, 5.0 3.061616997868383E-16, 5.0 3.061616997868383E-16, 0.0 5.0, 0.0 5.0, 5.0 0.0, 5.0 0.0, 0.0 5.0, 0.0 5.0, 5.0 0.0, 5.0 0.0, 0.0 -5.0, -5.0 0.0, 0.0 -5.0, 5.0 3.061616997868383E-16, 5.0 3.061616997868383E-16, 0.0 -5.0, -5.0 0.0, 0.0 -5.0, 5.0 3.061616997868383E-16, 5.0 3.061616997868383E-16, 0.0 5.0, 0.0 5.0, 5.0 0.0, 0.0 -5.0, 5.0 3.061616997868383E-16, 5.0 3.061616997868383E-16, 0.0 -5.0, 0.0 -5.0, -5.0 0.0, 0.0 5.0, -5.0 0.0, 0.0 -5.0, 0.0 -5.0, -5.0 0.0, 0.0 5.0, -5.0 0.0, 0.0 -5.0, 0.0 -5.0, 5.0 3.061616997868383E-16, 5.0 3.061616997868383E-16, 0.0 -5.0, -5.0 0.0, 0.0 -5.0, 0.0 -5.0, -5.0 0.0, -5.0 0.0, 0.0 5.0, 5.0 0.0, 0.0 5.0, -5.0 0.0, -5.0 0.0, 0.0 5.0, 5.0 0.0, 0.0 5.0, -5.0 0.0, -5.0 0.0, 0.0 -5.0, 0.0 -5.0, -5.0 0.0, 0.0 -5.0, 5.0 3.061616997868383E-16, 5.0 3.061616997868383E-16, 0.0 -5.0, 0.0 -5.0, -5.0 0.0, 0.0 5.0, -5.0 0.0, 0.0 -5.0, 0.0 -5.0, -5.0 0.0, 0.0 5.0, -5.0 0.0, 0.0 -5.0, 0.0 -5.0, 5.0 3.061616997868383E-16, 5.0 3.061616997868383E-16, 0.0 -5.0, 5.0 3.061616997868383E-16, 0.0 5.0, 0.0 5.0, 5.0 0.0, 5.0 0.0, 0.0 -5.0, -5.0 0.0, 0.0 -5.0, 5.0 3.061616997868383E-16, 5.0 3.061616997868383E-16, 0.0 -5.0, -5.0 0.0, 0.0 -5.0, 5.0 3.061616997868383E-16, 5.0 3.061616997868383E-16, 0.0 5.0, 0.0 5.0, 5.0 0.0, 5.0 0.0, 0.0 5.0, 0.0 5.0, 5.0 0.0, 5.0 0.0, 0.0 -5.0, -5.0 0.0, 0.0 -5.0, 5.0 3.061616997868383E-16, 5.0 3.061616997868383E-16, 0.0 -5.0, -5.0 0.0, 0.0 -5.0, 5.0 3.061616997868383E-16, 5.0 3.061616997868383E-16, 0.0 5.0, 0.0 5.0, 5.0 0.0, 0.0 -5.0, 5.0 3.061616997868383E-16, 5.0 3.061616997868383E-16, 0.0 -5.0, 0.0 -5.0, -5.0 0.0, 0.0 5.0, -5.0 0.0, 0.0 -5.0, 0.0 -5.0, -5.0 0.0, 0.0 5.0, -5.0 0.0, 0.0 -5.0, 0.0 -5.0, 5.0 3.061616997868383E-16, 5.0 3.061616997868383E-16, 0.0 -5.0, -5.0 0.0, 0.0 -5.0, 0.0 -5.0, -5.0 0.0, -5.0 0.0, 0.0 5.0, 5.0 0.0, 0.0 5.0, -5.0 0.0, -5.0 0.0, 0.0 5.0, 5.0 0.0, 0.0 5.0, -5.0 0.0, -5.0 0.0, 0.0 -5.0, 0.0 -5.0, -5.0 0.0, 0.0 -5.0, 5.0 3.061616997868383E-16, 5.0 3.061616997868383E-16, 0.0 -5.0, 0.0 -5.0, -5.0 0.0, 0.0 5.0, -5.0 0.0, 0.0 -5.0, 0.0 -5.0, -5.0 0.0, 0.0 5.0, -5.0 0.0, 0.0 -5.0, 0.0 -5.0, 5.0 3.061616997868383E-16, 5.0 3.061616997868383E-16, 0.0 -5.0, 5.0 3.061616997868383E-16, 0.0 5.0, 0.0 5.0, 5.0 0.0, 5.0 0.0, 0.0 -5.0, -5.0 0.0, 0.0 -5.0, 5.0 3.061616997868383E-16, 5.0 3.061616997868383E-16, 0.0 -5.0, -5.0 0.0, 0.0 -5.0, 5.0 3.061616997868383E-16, 5.0 3.061616997868383E-16, 0.0 5.0, 0.0 5.0, 5.0 0.0, 5.0 0.0, 0.0 5.0, 0.0 5.0, 5.0 0.0, 5.0 0.0, 0.0 -5.0, -5.0 0.0, 0.0 -5.0, 5.0 3.061616997868383E-16, 5.0 3.061616997868383E-16, 0.0 -5.0, -5.0 0.0, 0.0 -5.0, 5.0 3.061616997868383E-16, 5.0 3.061616997868383E-16, 0.0 5.0, 0.0 5.0, 5.0 0.0, 0.0 5.0, -5.0 0.0, -5.0 0.0, 0.0 5.0, 0.0 5.0, 5.0 0.0, 0.0 -5.0, 5.0 3.061616997868383E-16, 0.0 5.0, 0.0 5.0, 5.0 0.0, 0.0 -5.0, 5.0 3.061616997868383E-16, 0.0 5.0, 0.0 5.0, -5.0 0.0, -5.0 0.0, 0.0 5.0, 0.0 5.0, -5.0 0.0, -5.0 0.0, 0.0 5.0, 0.0 5.0, 5.0 0.0, 0.0 -5.0, 5.0 3.061616997868383E-16, 0.0 5.0, 0.0 5.0, 5.0 0.0, 0.0 -5.0, 5.0 3.061616997868383E-16, 0.0 5.0, 0.0 5.0, -5.0 0.0, -5.0 0.0, 0.0 5.0, 5.0 0.0, 0.0 5.0, 0.0 5.0, 5.0 0.0, 5.0 0.0, 0.0 -5.0, -5.0 0.0, 0.0 -5.0, 5.0 3.061616997868383E-16, 5.0 3.061616997868383E-16, 0.0 -5.0, -5.0 0.0, 0.0 -5.0, 5.0 3.061616997868383E-16, 5.0 3.061616997868383E-16, 0.0 5.0, 0.0 5.0, 5.0 0.0"
fill="transparent" stroke="black"/>
</svg>